<?xml version="1.0" standalone="no"?>
<!DOCTYPE svg PUBLIC "-//W3C//DTD SVG 20010904//EN"
 "http://www.w3.org/TR/2001/REC-SVG-20010904/DTD/svg10.dtd">
<svg version="1.0" xmlns="http://www.w3.org/2000/svg"
 width="512.000000pt" height="512.000000pt" viewBox="0 0 512.000000 512.000000"
 preserveAspectRatio="xMidYMid meet">

<g transform="translate(0.000000,512.000000) scale(0.100000,-0.100000)"
fill="#000000" stroke="none">
<path d="M0 2560 l0 -2560 2560 0 2560 0 0 2560 0 2560 -2560 0 -2560 0 0
-2560z m4736 2245 c69 -29 64 146 64 -2241 0 -2380 5 -2198 -63 -2239 -32 -20
-67 -20 -2312 -20 -2194 0 -2281 1 -2307 18 -15 10 -31 33 -37 50 -6 21 -9
784 -8 2208 2 2161 2 2177 22 2199 11 12 29 26 40 31 11 4 1043 8 2293 8 1974
1 2277 -1 2308 -14z"/>
<path d="M516 4589 c-78 -11 -141 -43 -198 -100 -58 -58 -84 -108 -98 -191 -8
-46 -10 -542 -8 -1779 l3 -1714 26 -55 c37 -80 81 -125 157 -162 l67 -33 620
-2 c363 -1 612 2 600 7 -11 5 -279 9 -595 9 -613 1 -626 2 -706 51 -52 33
-111 106 -130 163 -17 49 -18 164 -18 1787 -1 1629 0 1738 17 1785 32 92 136
186 240 216 18 5 349 10 767 10 404 1 724 5 710 9 -33 11 -1379 10 -1454 -1z"/>
<path d="M2900 4591 c0 -7 266 -10 726 -11 483 0 742 -4 777 -11 122 -26 214
-98 265 -207 l27 -57 0 -1735 0 -1735 -23 -57 c-29 -72 -89 -134 -167 -173
l-60 -30 -660 -5 c-363 -3 -662 -8 -665 -10 -3 -2 29 -6 70 -10 86 -7 1090 -3
1195 5 126 10 237 82 292 190 21 40 27 71 33 160 4 60 7 850 6 1755 l-1 1645
-23 57 c-50 124 -165 209 -309 227 -96 13 -1483 14 -1483 2z"/>
<path d="M2535 4563 c-11 -3 -26 -10 -33 -16 -10 -8 -16 -7 -22 2 -6 10 -20
12 -54 7 -36 -6 -46 -11 -46 -26 0 -10 5 -22 10 -25 20 -12 73 -8 84 7 10 13
13 14 25 1 9 -10 24 -13 49 -8 35 6 92 42 92 57 0 8 -71 9 -105 1z"/>
<path d="M2642 4530 c-28 -24 -21 -40 18 -40 43 0 140 -27 168 -47 60 -43 79
-53 102 -54 l25 -1 -23 -7 -24 -6 21 -27 c12 -14 21 -33 21 -42 0 -22 34 -37
83 -35 60 3 122 -17 160 -51 37 -33 30 -52 -8 -22 -47 37 -130 62 -180 55 -53
-7 -61 -15 -39 -37 8 -9 13 -19 10 -24 -11 -19 17 -37 75 -49 77 -15 121 -49
162 -123 l30 -55 -54 54 c-68 67 -119 93 -184 95 -44 1 -50 -1 -50 -19 0 -17
8 -21 50 -25 28 -3 64 -13 81 -22 57 -31 134 -131 134 -175 0 -13 -5 -10 -18
12 -30 49 -126 130 -169 143 -53 16 -68 15 -84 -4 -16 -20 -2 -30 56 -39 76
-13 145 -79 174 -168 17 -51 7 -58 -15 -11 -25 52 -163 154 -209 154 -64 0
-54 -27 19 -55 30 -11 71 -39 102 -69 44 -43 53 -59 59 -98 7 -45 2 -68 -14
-68 -5 0 -11 14 -15 31 -8 40 -115 147 -173 173 -35 15 -45 17 -58 6 -8 -7
-15 -18 -15 -24 0 -14 52 -46 74 -46 23 0 87 -60 102 -97 16 -38 18 -119 4
-128 -5 -3 -10 1 -10 10 0 20 -148 175 -179 186 -17 7 -30 5 -48 -6 -30 -20
-19 -37 41 -63 46 -21 103 -80 112 -117 3 -14 1 -39 -5 -56 -6 -18 -11 -47
-11 -65 0 -43 -15 -45 -18 -2 -2 23 -21 52 -69 106 -67 74 -118 107 -147 96
-33 -13 -16 -42 42 -78 93 -56 105 -78 88 -163 -9 -52 -18 -54 -34 -10 -6 18
-30 46 -51 63 -22 16 -45 39 -52 50 -17 33 -52 48 -86 37 -43 -15 -34 -37 37
-86 36 -24 71 -55 78 -68 13 -25 10 -86 -8 -164 -5 -22 -11 -52 -15 -67 -3
-16 -12 -28 -20 -28 -19 0 -19 11 2 54 21 45 9 76 -57 140 -28 27 -50 54 -50
62 0 24 -31 44 -70 44 -71 0 -62 -34 24 -94 30 -21 58 -47 62 -58 7 -24 -5
-201 -16 -218 -5 -8 -12 8 -20 43 -6 32 -23 70 -38 90 -31 39 -119 117 -131
117 -23 0 -81 -32 -81 -45 0 -8 31 -29 74 -48 40 -19 77 -40 81 -47 10 -17 -5
-182 -17 -178 -5 2 -8 6 -7 8 5 11 -23 50 -35 50 -18 0 -73 62 -93 105 -13 27
-21 32 -52 33 -27 1 -40 -4 -49 -18 -18 -30 0 -57 53 -80 24 -10 51 -31 61
-45 19 -30 31 -151 20 -211 l-7 -37 -24 49 c-31 65 -136 174 -167 174 -29 0
-68 -26 -68 -45 0 -8 26 -28 58 -44 98 -49 140 -142 117 -258 l-8 -38 -11 32
c-6 18 -34 59 -63 92 -29 32 -60 77 -69 100 -11 27 -22 41 -35 41 -27 0 -69
-21 -69 -35 0 -13 68 -112 113 -164 28 -33 29 -37 23 -99 -6 -59 -25 -120 -26
-84 0 8 -19 37 -43 65 -62 75 -77 102 -77 141 0 50 -40 60 -68 15 -11 -17 -9
-27 9 -64 24 -48 20 -66 -11 -47 -30 19 -49 14 -56 -13 -3 -13 -4 -28 -2 -32
6 -17 135 -128 166 -145 18 -10 35 -24 39 -33 6 -18 -13 -61 -32 -68 -28 -11
-165 106 -165 141 0 6 -7 18 -16 26 -14 14 -18 14 -44 -6 -22 -16 -29 -28 -25
-46 5 -30 46 -92 60 -92 6 0 30 -20 54 -44 24 -25 57 -50 73 -57 30 -12 35
-28 16 -58 -12 -19 -12 -19 -40 0 -15 11 -39 22 -53 23 -26 3 -99 71 -91 84 2
4 -4 19 -14 32 -17 22 -22 23 -39 13 -12 -7 -28 -13 -36 -13 -22 0 -19 -9 19
-72 39 -65 87 -110 161 -153 l53 -31 -24 -21 c-20 -18 -30 -20 -52 -12 -68 24
-111 53 -133 90 -13 21 -28 39 -34 39 -29 0 -55 -14 -55 -31 0 -26 32 -89 45
-89 5 0 37 -22 70 -50 33 -27 81 -57 108 -66 52 -17 60 -35 22 -52 -21 -10
-32 -9 -55 3 -16 8 -38 15 -48 15 -28 0 -99 72 -107 108 -6 27 -8 29 -30 18
-13 -6 -21 -14 -19 -18 3 -5 1 -8 -4 -8 -6 0 -12 -6 -15 -13 -17 -46 118 -176
211 -203 54 -16 60 -28 17 -36 -30 -6 -151 51 -172 81 -8 12 -21 34 -28 49 -8
15 -23 27 -32 27 -12 0 -17 6 -15 17 2 11 -3 18 -13 18 -8 0 -15 5 -15 10 0 6
-7 10 -15 10 -17 0 -20 26 -4 35 7 5 2 16 -12 31 -26 28 -39 31 -39 9 0 -8 -5
-15 -11 -15 -5 0 -7 -4 -4 -10 3 -5 1 -10 -4 -10 -6 0 -11 -5 -11 -10 0 -6 5
-9 11 -8 6 2 14 -3 17 -11 2 -8 0 -11 -6 -7 -6 3 -13 0 -15 -6 -4 -9 -6 -8 -6
2 -1 8 -8 27 -15 43 -8 15 -11 28 -5 28 5 1 13 2 18 3 21 3 23 16 3 16 -12 0
-26 10 -33 21 -8 15 -8 19 0 15 14 -9 14 0 1 25 -6 10 -18 19 -28 20 -12 0
-13 2 -3 6 11 4 9 10 -9 23 -18 13 -20 21 -13 36 6 10 8 25 6 32 -6 15 -39 16
-49 0 -5 -7 -2 -9 9 -5 20 8 30 -18 12 -33 -15 -13 -39 -4 -30 11 4 5 2 9 -4
9 -5 0 -12 -6 -15 -12 -3 -7 -4 -4 -1 8 3 12 -1 27 -10 34 -8 7 -15 9 -15 4 0
-5 -7 0 -15 10 -13 17 -15 17 -21 3 -7 -19 -34 -11 -34 11 0 9 12 26 28 38
l27 22 -23 24 c-12 14 -19 27 -16 31 4 4 -5 11 -20 17 -21 7 -33 6 -57 -9 -28
-17 -29 -20 -12 -30 17 -10 17 -10 -3 -11 -12 0 -27 7 -34 15 -11 13 -10 18 6
31 16 14 17 15 2 10 -10 -3 -17 -2 -17 2 1 4 1 14 0 22 -1 13 -2 13 -11 0 -8
-13 -10 -12 -10 3 0 9 7 17 15 17 8 0 15 -5 15 -11 0 -8 5 -8 15 1 24 20 18
38 -15 45 -17 4 -28 10 -25 15 3 4 -5 6 -17 3 -22 -5 -22 -4 4 19 l27 25 -35
13 c-30 12 -32 15 -17 22 16 7 16 8 -2 5 -13 -1 -20 -10 -20 -25 0 -22 -7 -25
-33 -14 -7 2 -18 0 -25 -7 -8 -8 -7 -11 4 -11 8 0 20 -9 27 -20 7 -11 19 -20
28 -20 9 0 12 5 8 11 -4 7 7 1 25 -12 17 -12 31 -24 31 -24 0 -1 -11 0 -25 3
-20 3 -25 0 -25 -17 0 -11 -4 -21 -10 -21 -5 0 -10 4 -10 8 0 14 -58 43 -65
33 -3 -6 -12 -8 -20 -4 -9 3 -15 -1 -15 -10 0 -10 -7 -13 -20 -10 -11 3 -20 9
-20 13 0 5 -9 12 -20 15 -25 8 -17 25 11 25 13 0 18 -4 13 -12 -5 -7 -3 -8 7
-2 8 5 17 9 21 9 3 0 10 4 15 8 4 5 1 7 -7 5 -11 -2 -15 7 -15 37 1 34 4 40
23 41 12 1 22 -2 22 -7 0 -5 7 -6 15 -3 8 4 15 12 15 20 0 7 -6 11 -14 8 -8
-3 -24 -1 -35 6 -12 6 -21 7 -21 2 0 -4 -10 -9 -22 -9 -16 -2 -19 0 -10 6 8 5
13 11 13 15 -1 3 -1 14 0 24 0 14 2 14 7 2 4 -8 16 -16 27 -18 11 -2 33 -6 49
-9 20 -4 27 -2 22 6 -5 7 -1 9 8 5 20 -8 20 0 0 20 -19 20 -5 21 30 3 14 -8
23 -17 19 -20 -3 -4 -1 -7 5 -7 5 0 19 -3 29 -6 17 -5 17 -5 1 8 -23 19 -19
54 8 69 l23 12 -22 17 c-21 18 -47 17 -47 -2 0 -6 7 -7 16 -4 8 3 12 2 9 -4
-10 -17 -29 -11 -48 16 -10 13 -15 23 -10 22 4 -1 18 3 30 10 12 6 29 9 37 6
9 -3 16 -2 16 4 0 14 -28 23 -35 12 -9 -15 -25 -12 -25 5 0 8 -5 15 -11 15 -5
0 -8 -4 -5 -9 4 -5 0 -12 -6 -14 -8 -3 -6 -6 5 -6 10 -1 16 -5 12 -11 -4 -6
-15 -6 -30 0 -14 5 -25 6 -25 2 0 -4 -5 0 -10 8 -5 8 -10 11 -10 5 0 -5 -15
-11 -33 -11 -21 -1 -34 4 -34 11 0 7 8 10 20 7 10 -3 23 1 27 8 5 9 13 9 28 1
16 -9 21 -7 25 8 3 14 0 17 -19 13 -14 -2 -24 0 -24 7 0 7 4 10 9 6 5 -3 12
-1 15 4 3 5 -3 11 -14 14 -13 3 -20 0 -20 -9 0 -12 -3 -12 -14 -2 -8 7 -12 16
-9 20 2 4 -3 5 -11 2 -9 -3 -16 -12 -16 -20 0 -8 -6 -14 -12 -14 -15 1 -56 30
-42 30 5 0 4 4 -2 8 -8 5 -7 11 4 22 14 13 15 12 9 -3 -5 -13 -1 -17 16 -17
17 0 19 2 8 9 -12 8 -12 12 2 25 10 10 18 12 22 6 4 -6 10 -8 15 -5 5 3 12 -4
15 -16 4 -11 9 -18 12 -16 2 3 18 1 34 -5 21 -7 33 -7 44 2 8 7 22 9 31 6 14
-5 13 -9 -7 -26 -21 -17 -21 -19 -4 -13 11 4 27 14 35 23 8 9 14 14 13 12 -5
-11 40 -42 61 -42 14 0 28 -5 31 -10 4 -6 11 -7 17 -4 7 4 5 10 -5 16 -9 5
-14 15 -10 23 3 10 1 13 -9 10 -10 -4 -19 4 -28 25 -11 26 -15 29 -22 16 -13
-23 -28 -20 -27 7 0 12 3 17 6 10 3 -10 7 -10 18 0 7 7 11 15 8 20 -2 4 1 7 6
7 6 0 11 -7 11 -16 0 -14 2 -15 17 -3 15 13 16 12 10 -9 -4 -18 -2 -22 10 -18
8 3 19 6 25 6 7 0 6 5 -1 14 -9 11 -6 13 16 10 16 -2 22 -1 16 2 -7 3 -13 12
-13 20 0 8 -7 14 -15 14 -8 0 -15 -4 -15 -10 0 -5 -13 -2 -29 7 -19 11 -27 23
-23 35 5 22 -6 23 -33 4 -17 -12 -22 -12 -33 0 -11 12 -8 14 15 15 19 1 22 3
10 6 -31 8 -56 35 -49 52 5 13 3 14 -10 3 -13 -10 -17 -10 -22 3 -3 8 -13 15
-22 15 -10 0 -14 5 -10 16 4 10 2 13 -6 8 -8 -5 -9 -2 -5 9 3 10 2 17 -2 17
-5 0 -7 9 -4 19 3 13 -1 21 -14 24 -17 5 -17 5 1 6 12 1 16 6 12 17 -3 9 -6
18 -6 20 0 2 -10 4 -22 4 -17 0 -19 -3 -10 -9 11 -7 11 -9 -2 -14 -8 -3 -18
-2 -22 4 -3 6 -12 8 -20 5 -8 -3 -14 1 -14 9 0 8 6 15 14 15 9 0 12 7 9 21 -4
15 0 22 15 26 11 3 23 12 27 21 5 12 8 13 14 4 5 -9 12 -7 27 9 19 22 19 22
-5 14 -19 -6 -23 -4 -18 8 3 9 1 18 -6 21 -9 5 -9 7 1 12 6 3 12 12 12 19 0 7
10 15 22 19 18 5 20 8 9 15 -9 6 -10 11 -2 15 6 4 11 16 11 28 0 11 9 31 20
45 11 14 20 39 20 54 0 16 4 29 9 29 13 0 21 38 8 43 -11 3 22 47 36 47 15 0
38 30 32 41 -4 6 7 25 24 43 18 18 31 37 29 43 -2 5 11 22 29 37 19 16 30 33
26 41 -3 8 -1 15 5 15 18 0 71 51 66 63 -3 8 10 18 31 26 19 7 35 19 35 27 0
7 16 20 35 28 19 8 35 19 35 25 0 5 10 13 23 17 27 8 58 34 52 44 -3 4 9 10
25 13 16 4 39 16 50 27 11 11 24 20 29 20 4 0 20 11 35 25 15 14 31 23 35 21
11 -7 71 25 71 39 0 29 -27 36 -69 19 -23 -9 -41 -20 -41 -25 0 -5 -7 -9 -15
-9 -26 0 -77 -31 -72 -43 3 -8 -7 -12 -26 -13 -18 -1 -38 -10 -48 -23 -9 -11
-22 -21 -29 -21 -22 0 -119 -75 -120 -92 0 -11 -8 -18 -19 -18 -24 0 -54 -28
-47 -45 3 -8 -2 -11 -14 -8 -12 3 -27 -7 -46 -31 -16 -20 -34 -36 -41 -36 -6
0 -21 -20 -33 -45 -12 -25 -28 -45 -35 -45 -17 0 -64 -62 -93 -122 -13 -26
-26 -48 -30 -50 -4 -2 -22 -32 -40 -67 l-33 -64 27 -22 28 -22 -31 4 c-27 4
-34 1 -47 -25 -9 -17 -16 -36 -16 -42 0 -7 -9 -23 -20 -37 -11 -14 -20 -36
-20 -48 0 -12 -7 -28 -15 -35 -8 -7 -15 -23 -15 -37 0 -13 -7 -31 -15 -39 -8
-9 -18 -27 -21 -42 -3 -15 -12 -42 -21 -60 -8 -18 -13 -40 -12 -50 2 -9 -3
-28 -10 -41 -8 -14 -11 -38 -8 -57 3 -19 2 -34 -2 -34 -14 0 -33 -56 -30 -87
2 -15 -2 -38 -9 -50 -15 -28 -15 -66 0 -81 9 -9 8 -15 -6 -25 -16 -11 -18 -23
-14 -65 3 -29 1 -52 -3 -52 -16 0 -21 -49 -9 -86 9 -25 9 -38 2 -43 -18 -11
-21 -57 -6 -87 10 -19 12 -30 5 -32 -14 -5 -14 -67 -1 -92 7 -13 7 -21 0 -25
-17 -11 -11 -61 12 -90 19 -25 20 -28 5 -37 -18 -10 -23 -58 -7 -74 5 -5 11
-68 14 -139 3 -84 14 -176 31 -260 45 -225 107 -327 340 -561 142 -142 178
-172 321 -267 88 -58 189 -118 225 -133 35 -16 66 -31 69 -35 3 -3 16 -10 30
-14 14 -4 52 -20 86 -36 78 -35 138 -51 189 -51 22 1 62 -9 90 -23 104 -49
168 -60 345 -59 157 0 256 11 415 46 86 19 249 70 270 84 11 8 28 14 38 14 10
0 30 12 44 26 14 14 31 27 37 28 24 4 85 38 102 57 9 10 27 19 38 19 12 0 35
12 51 26 17 15 48 38 70 52 22 14 56 39 76 56 20 17 50 39 67 48 26 14 32 23
32 50 0 24 3 29 10 18 7 -12 13 -12 33 -1 22 12 57 42 83 73 6 7 34 35 63 61
28 27 51 53 51 58 0 5 17 26 39 47 21 20 40 46 42 56 2 11 19 26 36 35 21 10
33 23 33 37 0 12 9 25 19 30 34 16 90 100 84 125 -4 14 -2 20 4 16 6 -4 23 3
38 14 19 16 25 28 21 44 -4 14 0 28 9 35 20 17 75 98 75 111 0 5 -7 23 -15 39
-9 17 -11 30 -6 30 5 0 11 -5 13 -12 7 -20 29 2 49 50 18 42 18 46 3 63 -16
17 -15 19 9 28 33 13 47 59 23 76 -22 17 -20 42 4 50 23 7 54 60 45 75 -3 6
-13 10 -22 10 -13 0 -12 5 7 25 20 21 22 29 13 43 -8 14 -7 23 3 37 18 24 18
55 0 55 -7 0 -19 6 -25 14 -10 12 -9 13 7 9 13 -3 25 3 36 18 20 29 21 59 2
59 -8 0 -16 6 -19 14 -8 21 4 56 19 56 15 0 29 43 19 59 -3 6 -13 11 -22 11
-13 0 -13 3 2 26 14 21 15 31 6 51 -15 32 -14 43 3 37 26 -10 26 36 0 63 -27
27 -31 48 -9 57 24 9 19 61 -7 79 -22 14 -22 15 -5 34 23 26 22 60 -3 73 -24
13 -26 30 -4 30 11 0 14 5 10 16 -3 9 -6 22 -6 30 0 8 -11 19 -25 24 -25 9
-25 11 -9 35 14 22 15 31 4 70 -7 25 -17 45 -21 45 -5 0 -9 -4 -9 -8 0 -5 -6
-16 -13 -26 -12 -16 -15 -15 -55 13 -49 36 -62 38 -62 12 0 -35 12 -52 50 -71
44 -22 80 -64 80 -92 0 -17 -6 -14 -43 16 -24 20 -47 33 -50 29 -4 -3 -7 -21
-7 -39 0 -28 6 -36 42 -56 45 -25 88 -79 88 -111 0 -17 -4 -15 -35 12 -46 40
-65 40 -65 1 0 -24 8 -35 39 -56 41 -27 75 -82 69 -112 -3 -14 -10 -11 -36 16
-37 38 -62 36 -62 -3 0 -17 13 -38 39 -63 33 -31 41 -46 46 -87 6 -49 5 -49
-8 -20 -8 17 -24 38 -35 49 -21 18 -22 18 -32 -8 -15 -40 -14 -45 29 -106 42
-60 59 -104 43 -114 -5 -3 -20 11 -33 31 -13 20 -28 36 -33 36 -5 -1 -16 -18
-24 -38 -13 -33 -13 -38 6 -58 11 -12 32 -46 47 -76 20 -41 24 -56 14 -62 -8
-5 -18 3 -28 24 -23 45 -36 43 -55 -6 -15 -41 -15 -46 0 -83 10 -21 20 -57 24
-79 4 -22 11 -53 15 -70 11 -44 -5 -23 -29 37 -26 65 -42 71 -56 19 -9 -36 -8
-45 20 -99 28 -56 38 -110 23 -125 -4 -4 -13 12 -21 35 -24 72 -41 84 -60 43
-17 -38 -15 -59 13 -111 25 -48 33 -118 15 -129 -5 -3 -10 3 -10 15 0 34 -28
90 -45 90 -27 0 -35 -43 -18 -97 10 -33 13 -63 9 -87 -9 -48 -15 -42 -30 31
-8 41 -16 59 -28 61 -28 5 -44 -40 -30 -87 13 -41 16 -139 6 -165 -12 -31 -24
-15 -24 32 0 90 -18 113 -55 72 -17 -19 -18 -26 -7 -66 16 -58 15 -96 -2 -119
-12 -17 -14 -14 -21 33 -8 58 -20 64 -55 27 -20 -21 -22 -28 -12 -50 19 -42
14 -135 -8 -135 -4 0 -10 22 -14 50 -4 27 -11 52 -17 56 -6 3 -23 -5 -37 -20
-21 -20 -24 -28 -14 -38 15 -15 16 -92 2 -119 -15 -27 -30 -23 -30 9 0 68 -21
89 -53 54 -13 -14 -15 -30 -11 -68 5 -39 2 -58 -16 -92 -30 -57 -42 -62 -36
-15 6 53 -3 83 -24 83 -34 0 -51 -28 -44 -71 7 -41 -19 -129 -37 -129 -5 0 -8
26 -7 58 l3 57 -41 0 c-22 0 -48 6 -57 13 -13 11 -20 11 -41 -3 -14 -10 -32
-15 -41 -12 -8 4 -17 2 -20 -3 -6 -10 16 -15 45 -11 79 11 78 11 70 -17 -5
-21 -12 -26 -31 -24 -14 1 -29 -5 -37 -15 -12 -17 -15 -16 -34 11 -20 27 -22
27 -30 10 -6 -15 -7 -13 -5 8 3 17 -2 33 -11 40 -13 11 -14 9 -7 -12 7 -24 7
-24 -9 -5 -21 27 -20 45 4 45 29 0 25 27 -5 34 -16 4 -23 11 -19 18 5 8 0 9
-17 5 -13 -4 -29 -7 -36 -7 -7 0 -10 -7 -7 -15 4 -8 10 -13 14 -10 5 3 12 0
15 -6 4 -5 14 -8 24 -4 12 5 13 3 5 -5 -29 -29 -114 -6 -114 30 0 5 -9 7 -20
5 -24 -5 -25 -1 -5 18 18 18 58 11 51 -9 -3 -8 -1 -14 3 -14 5 0 12 7 15 16 9
24 7 54 -4 54 -5 0 -7 7 -3 15 8 24 28 12 25 -15 -2 -13 1 -20 6 -16 6 4 13 2
17 -4 8 -14 42 -13 47 1 3 9 10 9 26 0 14 -8 22 -8 22 -1 0 5 -5 10 -12 10 -6
0 -3 6 8 14 14 11 21 11 26 3 5 -8 8 -6 8 6 0 10 -8 17 -20 17 -11 0 -20 -4
-20 -10 0 -5 -9 -10 -20 -10 -11 0 -20 6 -20 13 0 8 -3 7 -10 -3 -8 -12 -10
-12 -15 2 -4 9 -13 14 -20 12 -7 -3 -16 0 -21 7 -5 8 -3 10 5 4 10 -6 11 -3 2
14 -10 17 -9 21 4 21 8 0 15 -4 15 -10 0 -21 16 -9 18 13 1 16 -7 26 -28 35
-20 9 -27 18 -23 29 5 12 2 15 -10 10 -8 -3 -18 -1 -21 6 -2 7 -2 -2 1 -19 4
-25 0 -35 -26 -56 -29 -25 -31 -38 -4 -38 7 0 13 7 13 16 0 9 5 12 12 8 7 -5
9 -2 5 8 -3 10 1 18 12 21 12 3 17 -2 17 -19 0 -13 -3 -24 -7 -24 -4 0 -10
-11 -13 -25 -4 -14 -11 -25 -17 -25 -6 0 -8 -4 -4 -9 12 -20 -55 8 -80 33 -27
27 -26 32 5 16 15 -8 18 -5 22 20 4 29 4 30 -33 24 -29 -5 -41 -2 -58 15 -17
17 -19 25 -11 41 16 29 32 25 24 -7 -6 -21 -4 -25 9 -20 9 3 18 0 21 -9 3 -8
11 -14 18 -13 10 0 10 2 1 6 -18 7 -16 23 2 23 18 0 20 20 3 20 -7 0 -24 10
-38 21 -14 11 -20 18 -15 16 6 -3 17 -1 25 4 12 7 11 10 -7 15 -13 4 -23 11
-23 16 0 5 -4 6 -10 3 -5 -3 -10 -18 -10 -33 0 -34 -15 -59 -25 -43 -4 8 -11
9 -19 2 -7 -6 -17 -6 -26 -1 -12 7 -10 11 8 17 13 5 23 12 23 16 -1 4 -1 8 0
10 10 34 7 47 -11 47 -12 0 -20 7 -20 18 0 9 -4 13 -8 7 -9 -12 -53 -15 -46
-3 3 5 0 15 -6 23 -6 8 -9 19 -5 24 3 6 -3 21 -14 33 -17 17 -21 18 -21 6 0
-9 7 -19 16 -22 14 -5 14 -9 3 -23 -11 -13 -11 -17 -1 -20 18 -7 15 -37 -7
-50 -14 -9 -24 -8 -46 3 -28 14 -53 19 -42 7 4 -3 -1 -12 -11 -19 -16 -11 -16
-13 2 -33 17 -19 18 -21 2 -21 -9 0 -14 5 -11 10 3 6 -1 10 -9 10 -9 0 -16 4
-16 9 0 5 -10 13 -22 17 -13 4 -25 10 -28 15 -5 7 -35 16 -64 18 -5 1 1 9 12
20 26 22 28 31 7 31 -8 0 -15 5 -15 10 0 6 3 9 8 8 4 -2 8 2 10 7 1 6 -12 11
-31 13 -27 2 -33 -1 -34 -18 -1 -11 2 -20 8 -20 5 0 8 5 7 11 -2 6 4 14 12 17
8 2 12 1 8 -3 -4 -4 -3 -15 2 -25 6 -12 3 -21 -11 -33 -24 -21 -26 -52 -3 -43
14 5 15 4 4 -9 -19 -23 -30 -18 -30 13 0 19 -3 23 -9 13 -6 -9 -15 -11 -27 -6
-35 15 -52 12 -63 -11 -9 -21 -8 -22 22 -13 30 8 31 8 12 -7 -14 -11 -16 -18
-8 -21 10 -3 9 -8 -2 -20 -12 -12 -19 -12 -30 -3 -8 6 -20 8 -26 4 -8 -4 -9
-3 -5 4 5 8 0 11 -16 9 -13 -2 -25 -12 -27 -22 -2 -13 1 -16 14 -12 9 4 14 3
11 -2 -3 -5 8 -11 25 -15 28 -5 29 -7 15 -22 -9 -8 -14 -20 -11 -25 11 -16
-22 -9 -36 8 -12 15 -12 16 3 10 9 -3 22 1 29 10 11 13 7 14 -34 8 -38 -6 -48
-4 -53 9 -9 22 5 34 16 16 8 -13 10 -12 10 3 0 21 -28 53 -37 43 -4 -3 -2 -6
3 -6 5 0 -4 -7 -20 -15 -38 -20 -68 -21 -41 -2 14 11 15 16 5 22 -7 4 -16 2
-21 -6 -6 -10 -9 -8 -9 9 0 12 -4 22 -10 22 -5 0 -10 -4 -10 -8 0 -5 -7 -9
-15 -9 -14 0 -16 4 -15 25 1 13 -75 20 -115 10 -34 -9 -47 -7 -87 11 -25 13
-49 29 -52 38 -5 12 -2 13 11 7 10 -4 50 -10 88 -14 39 -3 75 -8 80 -10 6 -2
20 2 33 9 18 10 26 10 38 0 12 -10 13 -9 8 5 -3 9 -11 16 -18 16 -8 0 -8 2 0
8 17 11 13 42 -5 43 -9 1 -44 1 -77 0 -41 -2 -72 2 -93 14 -43 22 -81 56 -81
72 0 17 4 16 40 -2 27 -14 116 -27 197 -29 17 -1 29 -4 26 -8 -2 -5 3 -8 11
-8 10 0 13 6 9 16 -3 9 -1 19 5 23 8 5 8 14 -1 31 -11 22 -19 25 -75 27 -50 1
-71 6 -101 28 -37 25 -78 65 -94 92 -8 14 -8 13 68 -22 22 -10 69 -21 105 -24
36 -4 75 -12 86 -19 18 -9 24 -8 35 6 8 9 14 24 13 32 -1 8 -2 23 -3 33 -1 16
-10 18 -63 16 -80 -2 -107 9 -150 62 -44 52 -41 76 5 52 17 -8 67 -19 112 -23
44 -4 89 -11 101 -15 42 -13 74 56 39 85 -8 7 -27 10 -42 7 -93 -20 -90 -20
-138 13 -57 39 -105 107 -85 120 8 5 33 1 62 -11 33 -13 73 -19 123 -19 41 0
86 -5 99 -12 22 -9 29 -8 46 7 39 35 14 83 -37 71 -16 -3 -35 -8 -43 -10 -25
-6 -99 21 -135 49 -38 28 -52 49 -59 88 l-4 25 41 -18 c23 -10 85 -26 137 -35
160 -28 153 -28 173 0 29 41 5 61 -83 68 -75 6 -101 16 -142 55 -20 18 -28 36
-28 59 0 18 3 33 8 33 4 0 40 -11 80 -25 41 -14 91 -25 112 -25 22 0 48 -8 63
-20 42 -33 97 -22 97 20 0 9 -12 27 -26 41 -20 19 -37 24 -77 24 -47 1 -145
37 -148 54 0 3 -3 18 -5 34 -3 19 0 29 11 33 8 4 66 -3 128 -15 94 -18 115
-25 130 -46 32 -43 87 -25 87 28 0 21 -68 63 -124 76 -41 10 -120 43 -135 57
-3 3 10 18 29 35 31 29 38 31 85 25 80 -9 128 -29 143 -60 20 -40 54 -59 85
-47 46 18 44 48 -4 92 -24 21 -49 39 -56 39 -7 0 -41 11 -76 25 -99 40 -114
92 -32 115 39 11 51 10 122 -14 95 -32 98 -34 110 -70 12 -38 33 -51 66 -42
22 5 27 12 27 35 0 47 -91 112 -202 147 -32 10 -58 23 -58 29 0 21 38 62 68
74 26 11 38 9 104 -20 96 -41 106 -49 113 -90 9 -56 56 -77 88 -41 18 19 23
62 9 62 -5 0 -17 16 -28 36 -16 30 -36 45 -116 84 l-96 48 29 32 c27 29 35 32
69 27 21 -3 64 -19 95 -37 45 -26 61 -42 76 -76 21 -50 40 -62 74 -46 22 10
24 15 14 39 -28 76 -134 172 -209 188 -16 4 -30 11 -30 16 0 24 32 69 49 69
30 0 98 -27 157 -62 43 -26 58 -42 70 -75 22 -56 36 -68 65 -53 18 10 20 18
16 47 -12 70 -96 146 -192 173 -50 14 -50 14 -34 60 11 30 14 32 49 27 44 -6
99 -30 158 -69 37 -26 42 -33 42 -68 0 -29 5 -42 19 -50 50 -26 73 0 48 53
-37 77 -125 149 -221 181 -17 6 -17 8 -4 29 21 31 68 33 131 4 64 -29 117 -80
117 -113 0 -27 32 -64 56 -64 14 0 15 7 11 37 -4 21 -12 42 -19 48 -24 18 -90
106 -85 111 7 7 46 -13 74 -39 12 -11 25 -32 28 -48 9 -42 45 -41 45 1 0 17
-4 30 -10 30 -5 0 -10 6 -10 13 0 29 -50 60 -117 73 -94 18 -145 40 -141 62 3
14 14 17 66 15 34 -1 79 -7 100 -13 50 -17 102 -57 102 -80 0 -36 12 -50 41
-50 34 0 36 8 9 59 -33 67 -137 132 -231 147 -25 4 -39 12 -39 21 0 13 11 14
68 8 95 -9 162 -42 198 -96 35 -51 64 -63 64 -26 0 16 -18 41 -55 76 -61 58
-123 90 -172 91 -44 0 -42 17 2 26 74 14 137 -17 198 -95 37 -49 47 -51 47
-10 0 57 -127 151 -206 153 -50 1 -57 12 -16 27 52 20 154 -27 206 -95 30 -40
52 -40 33 1 -10 22 -8 28 11 43 29 24 28 44 -5 68 -16 11 -25 23 -22 26 9 10
93 -23 106 -41 9 -12 26 -16 58 -14 60 3 74 -7 44 -31 -24 -18 -24 -18 -4 -34
12 -9 31 -13 46 -10 14 3 36 2 48 -1 24 -6 29 -33 6 -33 -22 0 -19 -27 4 -40
11 -5 35 -10 53 -10 19 0 43 -6 53 -14 19 -14 19 -15 -8 -27 -15 -7 -27 -16
-27 -20 0 -16 54 -49 80 -49 15 0 40 -12 60 -30 18 -16 36 -30 38 -30 3 0 2
29 0 65 -4 50 -12 73 -33 100 -33 44 -45 38 -35 -17 10 -51 8 -53 -19 -38 -16
8 -21 20 -21 51 0 42 -33 111 -70 144 -19 18 -20 17 -20 -7 0 -13 7 -33 15
-44 19 -25 19 -34 -3 -34 -16 0 -32 33 -47 93 -10 45 -18 58 -47 82 -17 14
-33 24 -35 21 -2 -2 4 -21 15 -43 19 -37 19 -63 1 -63 -5 0 -9 7 -9 15 0 30
-49 124 -71 135 -21 12 -22 11 -16 -16 3 -16 9 -37 13 -48 5 -14 3 -17 -12
-14 -12 2 -21 17 -28 50 -10 41 -19 54 -66 89 -92 70 -232 119 -300 105 -55
-11 -97 4 -123 43 -80 121 -188 189 -389 245 -79 22 -167 21 -196 -4z m293
-55 c-16 -8 -37 -14 -45 -14 -8 0 1 7 20 14 46 18 64 17 25 0z m108 -92 c-13
-2 -35 -2 -50 0 -16 2 -5 4 22 4 28 0 40 -2 28 -4z m77 -63 c21 -11 41 -24 45
-30 8 -13 5 -13 -41 4 -22 7 -64 17 -94 22 l-55 8 45 7 c25 3 49 7 53 7 4 1
25 -7 47 -18z m9 -130 c36 -19 101 -81 117 -111 24 -47 16 -54 -14 -13 -48 66
-140 124 -198 124 -33 0 -39 18 -7 22 32 4 70 -4 102 -22z m199 -30 c37 -23
38 -27 16 -59 -17 -24 -39 -16 -39 16 0 9 -6 18 -12 20 -8 3 -13 -4 -13 -18 0
-31 -6 -21 -14 24 -6 31 -4 37 11 37 10 0 33 -9 51 -20z m177 -70 c3 -6 -1 -7
-9 -4 -18 7 -21 14 -7 14 6 0 13 -4 16 -10z m-36 -29 c20 -11 44 -27 52 -37
13 -16 11 -15 -21 1 -19 10 -60 26 -90 36 -55 18 -55 18 -17 18 21 1 55 -8 76
-18z m87 -9 c-4 -3 -14 2 -24 12 -16 18 -16 18 6 6 13 -6 21 -14 18 -18z m102
-11 c3 -8 -1 -12 -9 -9 -7 2 -15 10 -17 17 -3 8 1 12 9 9 7 -2 15 -10 17 -17z
m-355 -47 c-7 -39 -7 -39 -13 -9 -3 17 -1 35 5 41 14 17 15 13 8 -32z m232
-19 c26 -15 45 -28 43 -31 -2 -2 -31 8 -64 21 -32 14 -71 25 -86 25 -16 0 -28
5 -28 11 0 20 86 4 135 -26z m-266 -75 c0 -8 -6 0 -14 19 -8 18 -15 36 -15 40
1 13 29 -45 29 -59z m-439 -564 c0 -31 -5 -46 -16 -50 -11 -4 -14 -1 -10 12 3
9 7 32 8 50 3 48 18 39 18 -12z m-1906 -221 c2 0 10 6 19 14 25 20 20 0 -7
-31 -13 -16 -34 -29 -47 -29 -19 -1 -20 -2 -6 -6 13 -3 17 -11 14 -23 -3 -11
0 -21 7 -24 6 -3 4 -5 -4 -4 -23 2 -72 -21 -66 -31 4 -5 -5 -6 -21 -2 -34 9
-37 35 -4 39 15 2 21 0 17 -7 -11 -17 10 -13 28 5 21 20 21 30 1 14 -13 -10
-18 -11 -28 -1 -9 10 -8 15 7 26 10 8 15 19 10 26 -4 7 -3 10 4 5 6 -3 14 -1
19 6 12 21 12 38 0 39 -7 0 -3 4 8 9 14 6 24 3 33 -9 7 -9 14 -16 16 -16z m73
1 c-3 -7 0 -20 6 -27 9 -9 6 -9 -8 1 -11 8 -22 15 -24 17 -1 1 0 6 4 12 9 16
28 13 22 -3z m38 -46 c-3 -5 -12 -10 -18 -10 -7 0 -6 4 3 10 19 12 23 12 15 0z
m1535 -33 c0 -26 -17 -47 -38 -47 -10 0 -12 7 -7 27 11 44 45 59 45 20z
m-1603 -2 c15 16 52 12 64 -7 3 -5 10 -8 15 -7 25 4 42 -3 47 -21 4 -15 0 -20
-15 -20 -12 0 -26 7 -32 15 -12 16 -58 21 -91 10 -17 -5 -21 -1 -23 22 -1 24
0 25 9 10 9 -16 12 -16 26 -2z m-183 -176 c-3 -5 -10 -7 -15 -3 -5 3 -7 10 -3
15 3 5 10 7 15 3 5 -3 7 -10 3 -15z m46 17 c0 -3 -4 -8 -10 -11 -5 -3 -10 -1
-10 4 0 6 5 11 10 11 6 0 10 -2 10 -4z m1600 -15 c0 -22 -15 -35 -30 -26 -7 4
-7 13 0 26 14 25 30 25 30 0z m-1546 -95 c-3 -8 5 -11 23 -10 15 1 29 3 31 4
1 1 8 3 15 4 6 1 11 10 9 21 -2 16 -1 17 7 5 10 -15 14 -16 47 -19 8 0 12 -6
9 -11 -5 -8 -11 -8 -20 0 -9 7 -16 6 -25 -5 -7 -8 -22 -14 -34 -13 -35 2 -114
-51 -99 -66 4 -3 -1 -6 -10 -6 -9 0 -16 3 -16 8 4 22 -3 29 -26 24 -32 -6 -32
13 -1 34 16 10 23 21 19 31 -5 12 -2 15 10 10 15 -6 16 -3 7 13 -11 21 -8 24
23 21 9 -1 17 4 18 11 0 7 5 0 9 -15 5 -16 7 -34 4 -41z m1463 -39 c-3 -10
-47 -19 -47 -9 0 3 8 11 17 18 19 13 36 9 30 -9z m-1563 -98 c-3 -5 0 -9 5 -9
6 0 11 5 11 11 0 5 4 7 10 4 11 -7 -9 -45 -25 -45 -5 0 -17 13 -26 28 -16 28
-16 29 7 24 13 -2 21 -8 18 -13z m-44 -4 c11 -13 10 -14 -4 -9 -9 3 -16 10
-16 15 0 13 6 11 20 -6z m318 -47 c-2 -6 -10 -13 -16 -14 -7 -1 -8 0 -2 3 5 2
8 9 4 14 -3 5 0 9 6 9 7 0 10 -5 8 -12z m-193 -8 c18 -1 19 -1 2 -11 -9 -5
-22 -7 -27 -4 -6 3 -13 -1 -16 -9 -3 -9 -10 -16 -15 -16 -4 0 -6 6 -3 14 4 10
0 14 -13 12 -10 -2 -12 -1 -5 1 6 3 12 9 12 15 0 6 10 8 23 4 12 -3 31 -6 42
-6z m1345 -5 c0 -16 -27 -32 -37 -21 -7 7 16 36 28 36 5 0 9 -7 9 -15z m-1210
-95 c0 -5 -7 -7 -15 -4 -8 4 -15 8 -15 10 0 2 7 4 15 4 8 0 15 -4 15 -10z
m-100 -43 c-14 -8 -27 -12 -30 -10 -7 6 23 23 40 23 8 0 4 -6 -10 -13z m70 -7
c0 -5 -2 -10 -4 -10 -3 0 -8 5 -11 10 -3 6 -1 10 4 10 6 0 11 -4 11 -10z m53
-10 c6 0 2 -8 -9 -19 -13 -12 -21 -15 -26 -7 -14 20 -9 38 8 32 9 -3 21 -6 27
-6z m76 -48 c8 -2 18 3 22 10 7 10 9 9 9 -4 0 -10 -3 -18 -7 -18 -5 0 -17 -3
-28 -6 -16 -4 -21 0 -22 18 -1 12 1 18 5 13 4 -6 13 -11 21 -13z m-99 -44 c0
-7 -5 -6 -13 1 -8 6 -17 8 -20 4 -4 -3 -7 -2 -7 4 0 17 13 23 27 12 7 -6 13
-16 13 -21z m140 8 c0 -8 11 -17 25 -20 16 -4 22 -11 19 -21 -3 -8 -11 -13
-16 -12 -20 4 -60 46 -53 56 9 16 25 13 25 -3z m-260 -26 c0 -5 -4 -10 -10
-10 -5 0 -10 5 -10 10 0 6 5 10 10 10 6 0 10 -4 10 -10z m210 -65 c0 -8 -4
-15 -10 -15 -5 0 -10 7 -10 15 0 8 5 15 10 15 6 0 10 -7 10 -15z m30 -15 c0
-5 -5 -10 -11 -10 -5 0 -7 5 -4 10 3 6 8 10 11 10 2 0 4 -4 4 -10z m90 -10 c0
-5 -8 -10 -17 -10 -15 0 -16 2 -3 10 19 12 20 12 20 0z m160 -4 c0 -2 -7 -6
-15 -10 -8 -3 -15 -1 -15 4 0 6 7 10 15 10 8 0 15 -2 15 -4z m-103 -22 c-3 -3
0 -12 6 -19 10 -11 15 -10 30 8 10 12 16 16 12 9 -5 -9 0 -11 18 -7 16 4 26 2
30 -8 4 -10 -1 -13 -19 -11 -13 1 -22 -3 -21 -9 1 -6 -14 -12 -35 -13 -34 -1
-37 1 -36 27 1 16 6 29 11 29 6 0 8 -3 4 -6z m-42 -44 c-3 -5 -10 -10 -16 -10
-5 0 -9 5 -9 10 0 6 7 10 16 10 8 0 12 -4 9 -10z m25 -30 c12 -8 11 -10 -7
-10 -13 0 -23 5 -23 10 0 13 11 13 30 0z m106 -44 c24 -24 16 -38 -11 -19 -13
10 -25 21 -25 26 0 12 20 8 36 -7z m-58 -37 c-7 -5 -22 -9 -33 -9 -19 1 -19 1
-2 15 11 7 26 11 34 8 12 -5 12 -7 1 -14z m413 -283 c33 -31 90 -56 126 -56 7
0 10 -7 6 -16 -9 -24 -85 -13 -127 20 -36 27 -73 86 -54 86 6 0 28 -15 49 -34z
m-131 -91 c7 -8 8 -15 2 -15 -5 0 -15 7 -22 15 -7 8 -8 15 -2 15 5 0 15 -7 22
-15z m119 -85 c39 -19 70 -38 71 -41 0 -10 -77 9 -111 26 -16 9 -33 25 -40 36
-13 26 -12 25 80 -21z m-100 -48 c11 -16 46 -43 78 -60 41 -22 52 -32 36 -32
-13 0 -23 6 -23 13 0 9 -2 9 -9 -1 -6 -10 -20 -2 -55 32 -25 25 -52 46 -59 46
-8 0 -14 7 -14 15 0 24 24 17 46 -13z m1357 -93 c0 -19 -16 -40 -26 -34 -5 3
-11 1 -15 -5 -10 -17 -35 -11 -35 8 0 15 2 15 10 2 9 -13 12 -13 24 2 7 10 15
17 17 15 2 -1 -1 3 -8 9 -15 13 -8 23 15 20 9 -2 17 -9 18 -17z m-1378 -1 c19
-19 14 -30 -8 -18 -11 6 -20 15 -20 20 0 14 14 12 28 -2z m1053 -45 c10 3 22
1 25 -4 3 -5 -5 -9 -18 -9 -16 0 -19 -3 -10 -8 7 -5 10 -16 6 -25 -8 -23 -24
-22 -24 2 0 10 -2 31 -4 47 -2 16 -1 21 1 11 3 -13 11 -17 24 -14z m230 20
c13 -16 12 -17 -3 -4 -10 7 -18 9 -18 4 0 -5 -15 -17 -32 -26 -18 -10 -25 -12
-16 -5 15 11 15 13 0 26 -9 7 -12 11 -7 8 6 -2 17 -1 25 5 22 13 36 11 51 -8z
m-306 -12 c-3 -6 -11 -11 -17 -11 -6 0 -6 6 2 15 14 17 26 13 15 -4z m85 9 c0
-5 -4 -10 -10 -10 -5 0 -10 5 -10 10 0 6 5 10 10 10 6 0 10 -4 10 -10z m-689
-17 c19 -9 62 -19 97 -21 34 -2 62 -9 62 -14 0 -5 -9 -7 -19 -3 -11 3 -22 1
-26 -5 -11 -18 -85 -2 -127 27 -55 38 -48 46 13 16z m-271 -59 c0 -9 -80 51
-80 59 0 5 18 -6 40 -23 22 -17 40 -34 40 -36z m650 47 c0 -6 -4 -12 -8 -15
-5 -3 -9 1 -9 9 0 8 4 15 9 15 4 0 8 -4 8 -9z m203 -61 c9 -12 9 -13 -3 -2
-18 16 -33 16 -27 -1 3 -8 -3 -14 -15 -14 -15 -2 -17 1 -8 12 8 10 8 14 -2 18
-7 3 -3 6 10 6 15 1 22 8 23 24 2 20 2 20 6 -3 3 -14 10 -32 16 -40z m-393 40
c0 -5 -2 -10 -4 -10 -3 0 -8 5 -11 10 -3 6 -1 10 4 10 6 0 11 -4 11 -10z m68
-2 c-2 -6 -10 -14 -16 -16 -7 -2 -10 2 -6 12 7 18 28 22 22 4z m656 -3 c11 -8
15 -15 9 -15 -7 0 -15 5 -18 10 -4 6 -11 8 -16 5 -5 -4 -9 -1 -9 4 0 15 11 13
34 -4z m49 1 c4 -10 1 -13 -8 -9 -8 3 -12 9 -9 14 7 12 11 11 17 -5z m61 -11
c-4 -8 -15 -15 -25 -15 -17 0 -18 2 -7 15 17 19 39 19 32 0z m-699 -33 c-6 -7
-34 11 -29 19 3 5 11 3 19 -4 7 -6 12 -13 10 -15z m295 -7 c0 -8 -4 -15 -10
-15 -5 0 -10 7 -10 15 0 8 5 15 10 15 6 0 10 -7 10 -15z m284 0 c-4 -8 -10
-15 -15 -15 -5 0 -9 7 -9 15 0 8 7 15 15 15 9 0 12 -6 9 -15z m56 5 c0 -5 -4
-10 -10 -10 -5 0 -10 5 -10 10 0 6 5 10 10 10 6 0 10 -4 10 -10z m-986 -25
c11 -8 41 -15 67 -15 65 0 83 -7 64 -26 -7 -8 -21 -14 -30 -14 -23 0 -82 26
-112 50 -29 23 -19 27 11 5z m806 -16 c0 -5 -4 -9 -10 -9 -5 0 -10 7 -10 16 0
8 5 12 10 9 6 -3 10 -10 10 -16z m40 1 c0 -5 -7 -10 -15 -10 -8 0 -15 5 -15
10 0 6 7 10 15 10 8 0 15 -4 15 -10z m-512 -12 c-2 -6 -10 -13 -16 -14 -7 -1
-8 0 -2 3 5 2 8 9 4 14 -3 5 0 9 6 9 7 0 10 -5 8 -12z m796 6 c9 -3 16 -10 16
-16 0 -5 -4 -7 -9 -3 -6 3 -14 -2 -19 -11 -8 -15 -10 -15 -15 0 -5 12 -3 15 5
10 8 -5 9 -2 5 9 -7 19 -6 20 17 11z m-128 -36 c0 -21 -1 -21 -27 -7 -23 12
-19 25 8 25 11 0 19 -7 19 -18z m79 12 c3 -5 -1 -10 -9 -10 -9 0 -16 5 -16 10
0 6 4 10 9 10 6 0 13 -4 16 -10z m-163 -10 c18 0 -17 -27 -45 -34 -15 -3 -27
-13 -27 -22 0 -11 5 -14 18 -9 13 5 14 4 5 -6 -10 -10 -15 -9 -27 0 -9 7 -14
18 -13 24 3 14 -31 16 -58 4 -16 -8 -18 -7 -8 3 6 7 9 19 6 26 -3 8 0 14 7 14
6 0 8 -4 5 -10 -3 -5 -3 -10 2 -11 69 -9 82 -7 76 8 -5 13 -2 15 11 10 11 -5
15 -3 10 5 -5 8 -2 9 10 5 10 -4 22 -7 28 -7z m168 -24 c0 -3 -4 -8 -10 -11
-5 -3 -10 -1 -10 4 0 6 5 11 10 11 6 0 10 -2 10 -4z m-990 -37 c70 -2 90 -11
48 -23 -45 -12 -101 -6 -134 15 -40 24 -44 32 -9 19 13 -5 56 -10 95 -11z
m1055 -20 c4 -10 9 -18 13 -16 4 1 8 -2 10 -8 2 -5 -4 -11 -13 -13 -8 -2 -15
0 -14 5 4 21 -3 32 -21 38 -26 8 -26 25 0 18 10 -3 22 -14 25 -24z m-24 -19
c6 0 8 -4 5 -9 -8 -13 -39 -7 -44 9 -3 9 1 11 12 7 10 -4 22 -7 27 -7z m-101
-4 c0 -3 -4 -8 -10 -11 -5 -3 -10 -1 -10 4 0 6 5 11 10 11 6 0 10 -2 10 -4z
m197 -2 c-3 -3 -12 -4 -19 -1 -8 3 -5 6 6 6 11 1 17 -2 13 -5z m46 -30 c5 12
12 13 41 4 20 -6 36 -15 36 -19 0 -4 -16 -17 -35 -29 -31 -19 -36 -20 -58 -6
-19 13 -28 14 -50 3 -17 -8 -25 -17 -21 -27 3 -9 -2 -7 -14 5 -20 22 -18 55 4
55 8 0 14 6 14 13 0 9 2 9 8 -1 10 -16 45 -4 35 12 -3 6 3 3 14 -7 17 -15 21
-16 26 -3z m-146 -19 c0 -8 -4 -12 -9 -9 -5 3 -6 10 -3 15 9 13 12 11 12 -6z
m-1021 -15 c8 0 14 -7 14 -16 0 -12 -7 -14 -32 -9 -17 4 -39 14 -47 23 -14 14
-13 15 18 9 18 -4 40 -7 47 -7z m996 -32 c-6 -6 -15 -8 -19 -4 -4 4 -1 11 7
16 19 12 27 3 12 -12z m438 -14 c9 -9 -16 -93 -32 -109 -3 -4 -11 10 -18 30
-10 31 -10 39 5 55 11 12 13 20 6 25 -6 3 -11 1 -11 -4 0 -6 -4 -11 -8 -11 -5
0 -9 7 -9 15 0 16 51 15 67 -1z m-297 -15 c18 -8 23 -17 19 -32 -3 -13 -1 -18
6 -13 8 5 10 1 5 -10 -4 -11 -8 -13 -11 -6 -2 7 -8 9 -13 6 -6 -3 -22 6 -36
20 l-26 26 24 0 c19 0 21 2 9 10 -20 13 -6 13 23 -1z m139 -16 c0 -4 9 -20 19
-35 23 -32 23 -53 0 -97 -16 -30 -19 -32 -24 -15 -4 10 -8 38 -9 62 -2 23 -7
40 -13 38 -5 -2 -11 10 -12 26 -2 25 0 28 19 22 15 -5 19 -3 13 7 -5 8 -5 11
-1 7 4 -3 8 -10 8 -15z m-71 -30 c-12 -20 -14 -14 -5 12 4 9 9 14 11 11 3 -2
0 -13 -6 -23z m-1193 -3 c-10 -6 -25 -7 -40 -1 -20 9 -18 10 17 10 31 0 36 -2
23 -9z m1092 6 c0 -2 -7 -7 -16 -10 -8 -3 -12 -2 -9 4 6 10 25 14 25 6z m-7
-46 c16 -19 16 -20 -2 -20 -14 0 -19 6 -18 20 1 11 2 20 2 20 0 0 8 -9 18 -20z
m97 -73 c-1 -6 -11 -32 -24 -56 l-23 -44 -6 49 c-3 27 -4 51 -2 54 7 12 55 9
55 -3z m-130 -61 c0 -35 -10 -56 -26 -56 -21 0 -22 59 0 72 19 13 26 9 26 -16z
m-120 -58 c0 -10 -7 -21 -15 -24 -8 -4 -12 -10 -9 -15 3 -5 -1 -6 -8 -4 -18 7
-18 45 0 45 7 0 11 4 8 8 -3 5 1 9 9 9 8 0 15 -9 15 -19z m-125 -44 c0 -10 -8
-20 -17 -22 -11 -2 -18 3 -18 12 0 9 5 16 11 16 5 0 7 5 3 11 -4 7 -1 10 7 7
8 -3 14 -13 14 -24z m-525 -34 c0 -5 -2 -10 -4 -10 -3 0 -8 5 -11 10 -3 6 -1
10 4 10 6 0 11 -4 11 -10z m410 4 c0 -3 -6 -11 -13 -19 -11 -11 -16 -10 -25 6
-11 17 -9 19 13 19 14 0 25 -3 25 -6z"/>
<path d="M850 2780 c0 -5 7 -10 15 -10 8 0 15 5 15 10 0 6 -7 10 -15 10 -8 0
-15 -4 -15 -10z"/>
<path d="M3095 1050 c-3 -5 1 -10 9 -10 9 0 16 5 16 10 0 6 -4 10 -9 10 -6 0
-13 -4 -16 -10z"/>
<path d="M3285 950 c-3 -5 -1 -10 4 -10 6 0 11 5 11 10 0 6 -2 10 -4 10 -3 0
-8 -4 -11 -10z"/>
<path d="M2256 4531 c-18 -7 -17 -9 10 -28 40 -28 94 -21 94 13 0 22 -4 24
-42 23 -24 0 -52 -4 -62 -8z"/>
<path d="M2088 4497 c-87 -25 -96 -31 -78 -52 24 -29 110 -9 110 27 0 17 2 18
31 3 42 -22 91 -12 87 18 -4 30 -52 31 -150 4z"/>
<path d="M520 4500 c-85 -9 -143 -49 -186 -130 -18 -34 -19 -97 -19 -1800 l0
-1765 27 -45 c26 -46 58 -74 114 -103 34 -18 86 -19 679 -18 l380 1 -81 46
c-137 77 -292 200 -445 353 -208 208 -301 340 -433 611 -31 63 -63 124 -72
135 -24 31 -61 107 -67 140 -3 17 -9 219 -13 450 l-6 420 26 125 c29 138 89
320 191 575 88 219 92 226 161 254 47 20 86 54 252 220 161 161 218 211 312
273 117 78 374 216 443 238 21 7 36 14 33 17 -7 8 -1224 10 -1296 3z"/>
<path d="M3110 4503 c0 -6 180 -93 245 -118 278 -111 514 -256 690 -425 107
-102 161 -173 268 -350 113 -189 134 -246 187 -515 27 -136 28 -149 25 -415
-3 -350 -24 -569 -64 -678 -134 -362 -228 -519 -485 -806 -74 -83 -240 -247
-265 -261 -9 -5 -26 -18 -37 -28 -28 -27 -166 -127 -175 -127 -4 0 -14 -6 -21
-12 -26 -25 -74 -56 -136 -88 -35 -18 -62 -34 -60 -35 2 -2 260 -5 573 -7
l570 -3 53 24 c63 28 127 97 144 155 10 32 13 417 13 1761 l0 1720 -21 46
c-30 65 -77 113 -133 137 -47 21 -63 22 -710 24 -363 2 -661 2 -661 1z"/>
<path d="M1911 4440 c-24 -11 -50 -20 -57 -20 -8 0 -33 -9 -56 -21 -40 -20
-40 -21 -19 -35 30 -21 74 -14 86 13 7 17 15 21 32 17 38 -10 90 4 96 25 5 20
-9 41 -27 41 -6 0 -31 -9 -55 -20z"/>
<path d="M1386 4048 c3 -4 9 -8 15 -8 5 0 9 4 9 8 0 5 -7 9 -15 9 -8 0 -12 -4
-9 -9z"/>
<path d="M1300 3956 c0 -2 9 -6 20 -9 11 -3 18 -1 14 4 -5 9 -34 13 -34 5z"/>
<path d="M4165 3680 c-3 -5 -1 -18 5 -29 14 -28 13 -61 -4 -61 -7 0 -35 9 -61
21 -52 23 -60 21 -51 -15 5 -20 17 -29 58 -41 28 -8 62 -22 75 -30 30 -20 43
-12 43 25 0 28 -43 140 -54 140 -3 0 -8 -4 -11 -10z"/>
<path d="M788 3637 c-13 -23 -48 -101 -77 -172 -29 -72 -57 -139 -62 -150 -28
-68 -74 -227 -109 -380 -10 -44 -26 -107 -36 -140 -15 -50 -18 -97 -17 -292 1
-217 18 -557 29 -595 7 -23 31 -23 38 0 3 9 3 46 1 82 -25 429 -26 737 0 820
9 30 23 89 31 130 8 41 19 83 24 92 6 10 10 28 10 41 0 13 9 42 20 65 11 22
20 48 20 55 0 8 9 34 20 58 11 24 20 53 20 63 0 11 6 27 14 35 8 9 17 27 20
41 8 41 32 100 44 112 7 7 12 21 12 31 0 10 9 31 21 45 13 17 18 34 14 49 -3
13 -1 23 4 23 5 0 11 7 15 15 3 10 -1 15 -13 15 -12 0 -28 -16 -43 -43z"/>
<path d="M4245 3500 c-3 -11 -3 -24 0 -30 9 -15 2 -13 -49 16 -38 21 -49 24
-61 14 -32 -27 -6 -61 60 -79 27 -7 48 -22 63 -43 27 -40 14 -48 -27 -17 -33
24 -61 20 -61 -10 0 -19 39 -51 62 -51 8 0 30 -14 50 -30 34 -28 38 -29 46
-13 14 30 1 123 -18 123 -5 0 -6 8 -3 19 5 20 -34 121 -48 121 -4 0 -10 -9
-14 -20z"/>
<path d="M1115 3340 c4 -6 11 -8 16 -5 14 9 11 15 -7 15 -8 0 -12 -5 -9 -10z"/>
<path d="M913 3315 c0 -8 9 -15 20 -15 11 0 18 1 16 3 -2 1 -11 8 -20 15 -13
9 -16 9 -16 -3z"/>
<path d="M993 3314 c-12 -9 -19 -22 -16 -30 7 -20 29 -18 37 4 3 9 9 23 12 30
8 16 -6 14 -33 -4z"/>
<path d="M1040 3320 c0 -5 7 -10 16 -10 8 0 12 5 9 10 -3 6 -10 10 -16 10 -5
0 -9 -4 -9 -10z"/>
<path d="M1085 3310 c3 -5 8 -10 11 -10 2 0 4 5 4 10 0 6 -5 10 -11 10 -5 0
-7 -4 -4 -10z"/>
<path d="M1077 3263 c-20 -11 -13 -18 14 -15 4 1 23 2 43 4 20 1 36 7 36 14 0
16 -63 14 -93 -3z"/>
<path d="M1005 3250 c28 -12 37 -12 30 0 -3 6 -16 10 -28 9 -21 0 -21 -1 -2
-9z"/>
<path d="M1105 3221 c-11 -5 -23 -7 -27 -4 -5 2 -8 0 -8 -4 0 -5 -16 -7 -35
-5 -32 4 -35 2 -35 -22 0 -15 4 -25 9 -22 5 3 11 -4 14 -16 6 -20 8 -20 29 -6
13 8 24 25 26 37 2 15 9 21 18 17 8 -3 17 1 20 9 4 8 11 12 17 8 6 -3 7 -1 3
5 -4 7 -8 12 -9 11 -1 0 -11 -4 -22 -8z"/>
<path d="M1185 3210 c-3 -5 -11 -7 -18 -5 -7 3 -18 -7 -25 -22 -9 -20 -9 -24
0 -15 17 17 31 15 24 -3 -4 -10 1 -15 15 -15 11 0 17 5 14 10 -3 6 -1 10 4 10
6 0 11 11 11 25 0 25 -14 33 -25 15z"/>
<path d="M1220 3164 c0 -8 5 -12 10 -9 6 4 8 11 5 16 -9 14 -15 11 -15 -7z"/>
<path d="M1245 3140 c3 -5 10 -10 16 -10 5 0 9 5 9 10 0 6 -7 10 -16 10 -8 0
-12 -4 -9 -10z"/>
<path d="M1090 3132 c-8 -3 -21 -12 -29 -20 -13 -13 -12 -14 8 -7 16 5 21 4
17 -4 -4 -7 1 -11 13 -11 22 0 24 5 13 31 -4 9 -14 14 -22 11z"/>
<path d="M1181 3116 c-9 -11 -6 -15 16 -19 33 -6 38 -3 30 18 -8 19 -31 20
-46 1z"/>
<path d="M1220 3051 c0 -9 30 -24 36 -18 2 1 -6 8 -16 15 -11 7 -20 8 -20 3z"/>
<path d="M1298 2973 c7 -3 16 -2 19 1 4 3 -2 6 -13 5 -11 0 -14 -3 -6 -6z"/>
<path d="M1166 2764 c-4 -12 -2 -15 9 -10 8 3 15 1 15 -3 0 -5 10 -7 21 -4 21
6 21 7 4 20 -25 17 -42 17 -49 -3z"/>
<path d="M1240 2748 c0 -9 5 -20 11 -23 17 -11 18 -2 3 19 -12 17 -14 17 -14
4z"/>
<path d="M1158 2708 c6 -6 18 -8 28 -6 14 3 12 5 -9 10 -19 3 -25 2 -19 -4z"/>
<path d="M1276 2701 c-3 -5 1 -11 9 -15 8 -3 15 -1 15 4 0 13 -18 22 -24 11z"/>
<path d="M996 2651 c-3 -5 1 -11 9 -15 8 -3 15 -1 15 4 0 13 -18 22 -24 11z"/>
<path d="M1106 2641 c-3 -4 7 -17 23 -29 l28 -21 -1 21 c-1 21 -41 44 -50 29z"/>
<path d="M1181 2614 c0 -11 3 -14 6 -6 3 7 2 16 -1 19 -3 4 -6 -2 -5 -13z"/>
<path d="M1262 2560 c0 -14 2 -19 5 -12 2 6 2 18 0 25 -3 6 -5 1 -5 -13z"/>
<path d="M1215 2560 c-3 -5 1 -10 9 -10 9 0 16 5 16 10 0 6 -4 10 -9 10 -6 0
-13 -4 -16 -10z"/>
<path d="M1430 2562 c0 -9 40 -35 46 -29 6 6 -25 37 -37 37 -5 0 -9 -3 -9 -8z"/>
<path d="M955 2540 c3 -5 -1 -10 -10 -10 -9 0 -13 -4 -10 -10 4 -6 13 -5 25 2
19 12 18 28 -1 28 -6 0 -7 -4 -4 -10z"/>
<path d="M1157 2543 c-8 -12 30 -29 40 -19 4 3 -1 6 -9 6 -9 0 -18 5 -20 12
-3 9 -6 9 -11 1z"/>
<path d="M1310 2490 c-8 -5 -25 -7 -37 -4 -12 3 -30 1 -40 -5 -10 -6 -13 -11
-7 -11 11 0 28 -36 25 -52 -1 -5 6 -8 14 -8 8 0 15 -7 15 -15 0 -8 5 -15 11
-15 5 0 7 5 4 10 -3 6 -1 10 4 10 6 0 11 -4 11 -8 0 -4 9 -8 19 -8 11 0 17 4
15 8 -3 4 -1 8 4 8 5 0 9 7 9 15 0 8 -4 15 -9 15 -5 0 -6 5 -3 10 3 6 0 10 -8
10 -8 0 -18 7 -21 16 -3 8 -2 12 4 9 6 -3 10 1 10 9 0 19 0 19 -20 6z m-16
-44 c-6 -16 -24 -23 -24 -8 0 10 22 33 27 28 2 -2 1 -11 -3 -20z"/>
<path d="M1380 2441 c-5 -11 -10 -23 -10 -28 1 -4 7 3 14 16 11 19 14 21 19 7
4 -9 11 -16 17 -16 17 0 11 19 -10 30 -15 8 -21 6 -30 -9z"/>
<path d="M1468 2388 c5 -5 16 -8 23 -6 8 3 3 7 -10 11 -17 4 -21 3 -13 -5z"/>
<path d="M1306 2342 c-3 -9 -8 -22 -11 -28 -3 -6 1 -11 9 -11 8 0 15 3 14 6
-2 18 3 24 11 13 7 -11 9 -11 14 0 3 8 -3 19 -13 26 -14 9 -19 8 -24 -6z"/>
<path d="M1540 2261 c0 -6 4 -13 10 -16 6 -3 7 1 4 9 -7 18 -14 21 -14 7z"/>
<path d="M1506 2185 c-15 -8 -35 -15 -42 -15 -8 0 -14 -7 -14 -15 0 -8 5 -15
10 -15 6 0 10 5 10 12 0 6 3 9 6 6 3 -4 1 -15 -5 -26 -9 -17 -7 -20 14 -25 14
-2 28 -1 30 4 6 9 45 6 63 -5 7 -4 12 -2 12 3 0 6 -5 11 -11 11 -5 0 -8 4 -4
9 5 9 -32 27 -48 23 -5 -1 -6 2 -2 8 3 5 13 10 20 10 9 0 12 6 9 15 -8 19 -12
19 -48 0z"/>
<path d="M2820 1900 c6 -11 13 -20 15 -20 2 0 3 9 2 20 -1 11 -7 20 -14 20
-11 0 -11 -5 -3 -20z"/>
<path d="M2780 1886 c0 -9 5 -16 10 -16 6 0 10 4 10 9 0 6 -4 13 -10 16 -5 3
-10 -1 -10 -9z"/>
<path d="M2585 1840 c3 -5 8 -10 11 -10 2 0 4 5 4 10 0 6 -5 10 -11 10 -5 0
-7 -4 -4 -10z"/>
<path d="M2855 1800 c3 -5 8 -10 11 -10 2 0 4 5 4 10 0 6 -5 10 -11 10 -5 0
-7 -4 -4 -10z"/>
<path d="M2926 1801 c-8 -12 18 -21 33 -11 10 5 8 9 -4 14 -21 8 -23 8 -29 -3z"/>
<path d="M2458 1793 c7 -3 16 -2 19 1 4 3 -2 6 -13 5 -11 0 -14 -3 -6 -6z"/>
<path d="M3042 1791 c-11 -7 -10 -9 3 -15 9 -3 23 1 31 9 14 13 13 15 -3 15
-10 0 -24 -4 -31 -9z"/>
<path d="M3097 1783 c-10 -9 -9 -23 1 -23 5 0 9 7 9 15 0 17 -1 18 -10 8z"/>
<path d="M3015 1760 c-3 -5 1 -10 10 -10 9 0 13 5 10 10 -3 6 -8 10 -10 10 -2
0 -7 -4 -10 -10z"/>
<path d="M2380 1740 c0 -5 5 -10 10 -10 6 0 10 5 10 10 0 6 -4 10 -10 10 -5 0
-10 -4 -10 -10z"/>
<path d="M2586 1724 c-5 -14 -4 -15 9 -4 17 14 19 20 6 20 -5 0 -12 -7 -15
-16z"/>
<path d="M3035 1713 c-15 -12 -16 -14 -3 -10 9 3 19 1 22 -6 2 -7 5 -2 5 11 1
26 2 26 -24 5z"/>
<path d="M2367 1709 c7 -7 15 -10 18 -7 3 3 -2 9 -12 12 -14 6 -15 5 -6 -5z"/>
<path d="M3080 1709 c-12 -8 -10 -9 9 -4 16 5 21 4 17 -4 -5 -7 -1 -8 9 -4 13
5 14 7 3 14 -17 11 -20 11 -38 -2z"/>
<path d="M2672 1686 c1 -13 7 -22 13 -19 16 5 15 31 -2 37 -8 4 -12 -2 -11
-18z"/>
<path d="M2775 1690 c3 -5 11 -10 16 -10 6 0 7 5 4 10 -3 6 -11 10 -16 10 -6
0 -7 -4 -4 -10z"/>
<path d="M2610 1669 c0 -6 7 -8 16 -5 14 5 15 4 4 -9 -11 -13 -10 -14 4 -9 23
9 20 34 -4 34 -11 0 -20 -5 -20 -11z"/>
<path d="M2715 1670 c-4 -6 5 -10 20 -10 15 0 24 -4 20 -10 -3 -5 1 -10 9 -10
25 0 19 20 -10 30 -31 12 -31 12 -39 0z"/>
<path d="M2563 1645 c0 -14 4 -25 10 -25 6 0 7 3 4 6 -3 4 -2 15 4 25 7 14 6
19 -4 19 -9 0 -14 -10 -14 -25z"/>
<path d="M2793 1655 c0 -11 4 -12 14 -4 7 6 13 13 13 15 0 2 -6 4 -13 4 -8 0
-14 -7 -14 -15z"/>
<path d="M2684 1643 c3 -6 0 -14 -6 -16 -8 -4 -7 -6 4 -6 12 -1 16 -9 15 -28
-2 -23 1 -26 31 -25 49 1 52 1 52 12 0 5 -8 9 -17 8 -37 -3 -55 2 -51 15 3 6
-4 21 -15 32 -11 11 -17 15 -13 8z"/>
<path d="M2890 1635 c-8 -9 -8 -15 -2 -15 12 0 26 19 19 26 -2 2 -10 -2 -17
-11z"/>
<path d="M3098 1643 c7 -3 16 -2 19 1 4 3 -2 6 -13 5 -11 0 -14 -3 -6 -6z"/>
<path d="M3176 1637 c3 -10 9 -15 12 -12 3 3 0 11 -7 18 -10 9 -11 8 -5 -6z"/>
<path d="M3020 1606 c0 -18 5 -26 18 -26 10 0 23 -5 29 -11 8 -8 13 -8 17 0 4
6 2 11 -4 11 -7 0 -9 8 -5 20 4 14 2 20 -9 20 -8 0 -21 3 -30 6 -12 5 -16 0
-16 -20z"/>
<path d="M2935 1609 c-11 -17 1 -21 15 -4 8 9 8 15 2 15 -6 0 -14 -5 -17 -11z"/>
<path d="M2588 1593 c32 -31 66 -47 70 -34 2 6 8 9 13 5 5 -3 9 -1 9 4 0 16
-13 22 -26 11 -13 -10 -54 7 -54 23 0 5 -7 8 -15 8 -12 0 -11 -3 3 -17z"/>
<path d="M2858 1603 c7 -3 16 -2 19 1 4 3 -2 6 -13 5 -11 0 -14 -3 -6 -6z"/>
<path d="M2252 1570 c4 -27 2 -29 -21 -24 -22 5 -24 4 -8 -6 10 -6 23 -10 29
-8 13 5 17 68 4 68 -4 0 -6 -13 -4 -30z"/>
<path d="M2500 1570 c0 -5 5 -10 11 -10 5 0 7 5 4 10 -3 6 -8 10 -11 10 -2 0
-4 -4 -4 -10z"/>
<path d="M3003 1563 c4 -3 -1 -12 -11 -20 -15 -13 -15 -13 6 -3 19 9 23 30 5
30 -4 0 -3 -3 0 -7z"/>
<path d="M2380 1550 c0 -5 5 -10 11 -10 5 0 7 5 4 10 -3 6 -8 10 -11 10 -2 0
-4 -4 -4 -10z"/>
<path d="M3035 1550 c4 -6 11 -8 16 -5 14 9 11 15 -7 15 -8 0 -12 -5 -9 -10z"/>
<path d="M2416 1534 c-8 -22 -4 -25 11 -9 7 8 9 16 4 19 -5 3 -12 -1 -15 -10z"/>
<path d="M2497 1544 c-4 -4 -7 -12 -7 -17 0 -6 3 -7 7 -4 3 4 15 0 25 -10 17
-15 18 -15 18 0 0 10 -6 17 -14 17 -8 0 -16 5 -18 11 -2 5 -7 7 -11 3z"/>
<path d="M2650 1530 c0 -5 5 -10 10 -10 6 0 10 5 10 10 0 6 -4 10 -10 10 -5 0
-10 -4 -10 -10z"/>
<path d="M2742 1518 c9 -7 17 -18 19 -24 3 -7 12 -6 29 3 22 11 23 13 5 13
-17 0 -17 2 -5 10 11 7 5 10 -24 10 -34 0 -37 -2 -24 -12z"/>
<path d="M3290 1505 c0 -8 4 -15 10 -15 5 0 7 7 4 15 -4 8 -8 15 -10 15 -2 0
-4 -7 -4 -15z"/>
<path d="M2310 1499 c0 -8 5 -21 10 -29 8 -12 9 -10 7 7 -4 26 -17 43 -17 22z"/>
<path d="M3330 1500 c0 -5 5 -10 11 -10 5 0 7 5 4 10 -3 6 -8 10 -11 10 -2 0
-4 -4 -4 -10z"/>
<path d="M2674 1485 c8 -8 21 -15 28 -15 8 1 6 6 -6 15 -26 20 -42 19 -22 0z"/>
<path d="M2720 1490 c0 -5 7 -7 15 -4 8 4 15 8 15 10 0 2 -7 4 -15 4 -8 0 -15
-4 -15 -10z"/>
<path d="M2991 1486 c-10 -12 -8 -13 8 -9 12 3 18 9 15 14 -7 12 -10 11 -23
-5z"/>
<path d="M3410 1486 c0 -23 16 -27 17 -5 1 10 -2 19 -8 19 -5 0 -9 -6 -9 -14z"/>
<path d="M2356 1474 c-5 -12 -2 -15 10 -10 8 3 23 6 32 6 15 0 15 2 2 10 -22
14 -37 12 -44 -6z"/>
<path d="M2271 1448 c-1 -21 7 -22 29 -7 13 9 13 10 -2 6 -9 -3 -19 -1 -22 6
-2 7 -5 4 -5 -5z"/>
<path d="M3298 1443 c-3 -13 -2 -23 2 -23 5 0 12 -9 15 -21 6 -18 9 -19 23 -6
10 8 26 17 37 20 17 4 18 5 2 6 -10 0 -27 -4 -37 -9 -16 -8 -18 -8 -14 5 4 8
1 15 -4 15 -6 0 -12 8 -14 18 -3 14 -5 13 -10 -5z"/>
<path d="M2386 1439 c2 -4 15 -9 28 -11 17 -4 23 -1 19 8 -3 8 -15 13 -28 12
-13 -1 -22 -5 -19 -9z"/>
<path d="M3096 1435 c-3 -8 -1 -15 4 -15 6 0 10 7 10 15 0 8 -2 15 -4 15 -2 0
-6 -7 -10 -15z"/>
<path d="M3226 1432 c-2 -4 0 -14 5 -22 8 -13 10 -13 19 0 5 8 9 20 9 25 0 6
-3 4 -6 -2 -2 -7 -9 -13 -14 -13 -6 0 -7 5 -4 10 3 6 4 10 1 10 -3 0 -7 -4
-10 -8z"/>
<path d="M3640 1420 c-8 -5 -12 -11 -9 -14 2 -3 11 -1 19 4 8 5 12 11 9 14 -2
3 -11 1 -19 -4z"/>
<path d="M3132 1374 c17 -17 17 -19 -10 -30 l-27 -12 33 -1 c25 -1 32 3 32 19
0 10 -10 24 -22 31 -22 11 -22 11 -6 -7z"/>
<path d="M3273 1383 c-18 -7 -16 -23 2 -23 8 0 15 7 15 15 0 8 -1 15 -2 14 -2
0 -9 -3 -15 -6z"/>
<path d="M3300 1370 c0 -5 5 -10 11 -10 5 0 7 5 4 10 -3 6 -8 10 -11 10 -2 0
-4 -4 -4 -10z"/>
<path d="M3310 1340 c0 -5 5 -10 10 -10 6 0 10 5 10 10 0 6 -4 10 -10 10 -5 0
-10 -4 -10 -10z"/>
<path d="M3347 1330 c-11 -10 -26 -16 -38 -13 -15 4 -19 0 -19 -18 0 -13 4
-19 8 -14 4 6 16 12 27 13 11 2 24 10 28 18 4 8 15 14 22 14 8 0 15 5 15 10 0
16 -23 11 -43 -10z"/>
<path d="M3360 1290 c0 -5 5 -10 10 -10 6 0 10 5 10 10 0 6 -4 10 -10 10 -5 0
-10 -4 -10 -10z"/>
<path d="M3341 1154 c0 -11 3 -14 6 -6 3 7 2 16 -1 19 -3 4 -6 -2 -5 -13z"/>
<path d="M3437 1164 c-8 -8 4 -44 15 -44 5 0 6 4 3 10 -3 6 1 7 9 4 17 -6 21
4 8 21 -8 12 -27 16 -35 9z"/>
<path d="M3480 1160 c0 -5 5 -10 11 -10 5 0 7 5 4 10 -3 6 -8 10 -11 10 -2 0
-4 -4 -4 -10z"/>
<path d="M3325 1120 c3 -5 8 -10 11 -10 2 0 4 5 4 10 0 6 -5 10 -11 10 -5 0
-7 -4 -4 -10z"/>
<path d="M3376 1115 c-11 -8 -16 -15 -10 -15 5 0 18 7 28 15 11 8 16 15 10 15
-5 0 -18 -7 -28 -15z"/>
</g>
</svg>
